<svg width="118" height="31" viewBox="0 0 118 31" fill="none" xmlns="http://www.w3.org/2000/svg">
<g clip-path="url(#clip0_3759_726)">
<path d="M47.1618 6.23638C45.4738 6.361 44.0576 7.03605 42.887 8.25112C41.7478 9.44023 41.105 10.8474 40.8907 12.6181C40.8019 13.3451 40.7862 17.1357 40.8646 17.9042C41.0736 19.8203 41.7478 21.295 43.002 22.5412C44.068 23.6057 45.1498 24.1458 46.6914 24.3898C47.4074 24.4989 48.8811 24.4573 49.6022 24.3067C51.6821 23.8602 53.3805 22.5309 54.3682 20.5836C54.7706 19.7891 55.0162 18.9064 55.1312 17.8523C55.1991 17.198 55.1991 13.4905 55.1312 12.8362C54.9222 10.9201 54.2428 9.45581 52.9625 8.17323C52.0636 7.27491 50.9296 6.66218 49.6545 6.38697C49.2678 6.30388 47.9143 6.16368 47.7366 6.18445C47.7105 6.18965 47.4492 6.21042 47.1618 6.23638ZM48.3898 8.25631C50.1666 8.44325 51.4783 9.42465 52.2099 11.1123C52.6594 12.156 52.7482 12.9349 52.7116 15.7597C52.6907 17.6965 52.6803 17.9354 52.5757 18.4027C52.3824 19.2647 52.1472 19.8463 51.7396 20.459C51.5044 20.8173 50.961 21.3937 50.6422 21.6221C49.3305 22.5776 47.2663 22.7334 45.8239 21.9856C44.8519 21.4767 44.0053 20.4071 43.6186 19.1816C43.3051 18.2054 43.2946 18.0548 43.2946 15.3702C43.2946 13.5372 43.3103 12.8051 43.3626 12.5143C43.5611 11.429 43.8904 10.6397 44.4704 9.87641C44.8833 9.33119 45.3693 8.93135 45.9598 8.64576C46.4615 8.4069 46.7489 8.32382 47.3238 8.26151C47.8359 8.19919 47.8411 8.19919 48.3898 8.25631Z" fill="#00DAFF"/>
<path d="M0 15.3184L0 24.1978H1.22808H2.45616L2.45093 20.5993C2.45093 17.9978 2.41435 16.0453 2.33074 13.5269C2.26802 11.6108 2.21577 10.0426 2.22099 10.0375C2.22099 10.0323 3.51701 13.2153 5.09522 17.1098L7.96944 24.1978H8.80558H9.64694L12.5159 17.1254C14.0994 13.2361 15.3954 10.105 15.4058 10.1621C15.4163 10.2192 15.3745 11.6472 15.3118 13.3348C15.2334 15.6143 15.2073 17.4058 15.2073 20.3033V24.1978H16.4353H17.6634V15.3184L17.6634 6.43896L16.0852 6.44934L14.507 6.46492L11.7059 13.5529C10.1695 17.4525 8.88919 20.6927 8.85784 20.755C8.81603 20.8537 8.33525 19.6802 5.96271 13.6567L3.11461 6.43896H1.55731H0L0 15.3184Z" fill="#00DAFF"/>
<path d="M59.5226 15.3184V24.1978H60.7507H61.9787L61.9892 17.3643L62.0049 10.5308L66.2849 17.3643L70.5596 24.1978H71.8086H73.0576V15.3184V6.43896H71.8295H70.6014V13.2673C70.6014 17.0215 70.5857 20.0956 70.5648 20.0956C70.5387 20.0956 68.5947 17.0215 66.243 13.2673L61.9631 6.43896H60.7402H59.5226V15.3184Z" fill="#00DAFF"/>
<path d="M77.395 15.3184V24.1978H82.8299H88.2648V23.2371V22.2765H84.058H79.8512V14.3577V6.43896H78.6231H77.395V15.3184Z" fill="#00DAFF"/>
<path d="M90.9823 15.3184V24.1978H96.9137H102.845V23.2371V22.2765H98.1417H93.4385V19.1349V15.9934H97.5146L101.591 15.9934V15.0328V14.0721L97.5146 14.0721H93.4385V11.2421V8.41216L98.079 8.40177L102.714 8.3862L102.73 7.40998L102.74 6.43896H96.8614H90.9823V15.3184Z" fill="#00DAFF"/>
<path d="M104.057 7.40998L104.073 8.3862L106.937 8.40177L109.795 8.41216V16.305V24.1978H111.023H112.252V16.305V8.41216H115.126H118V7.42556V6.43896H111.023H104.047L104.057 7.40998Z" fill="#00DAFF"/>
<mask id="mask0_3759_726" style="mask-type:luminance" maskUnits="userSpaceOnUse" x="16" y="-4" width="26" height="39">
<path d="M16.6126 30.6362L23.9661 -3.48533L41.3267 0.154179L33.9732 34.2757L16.6126 30.6362Z" fill="white"/>
</mask>
<g mask="url(#mask0_3759_726)">
<path fill-rule="evenodd" clip-rule="evenodd" d="M33.2366 5.87353C35.8719 3.7385 37.4783 3.04097 38.0394 3.45207C38.6796 3.92101 37.872 6.1986 36.1022 9.33899C35.6755 8.85175 35.1909 8.40202 34.6464 8.00307C30.598 5.03731 24.8893 5.91577 21.8958 9.96535C18.9023 14.0148 19.7574 19.7018 23.8057 22.6675C24.3504 23.0666 24.9257 23.3934 25.52 23.654C23.0343 26.27 21.0901 27.7149 20.4501 27.2459C19.8889 26.8348 20.0037 25.3371 21.3441 21.961C18.5287 26.6954 17.1525 30.2211 18.0632 30.8883C19.4575 31.9097 25.6827 25.8456 31.9676 17.3438C38.2526 8.84187 42.2172 1.12183 40.823 0.10038C39.9122 -0.566758 36.94 1.78967 33.2366 5.87353Z" fill="#00DAFF"/>
</g>
<path fill-rule="evenodd" clip-rule="evenodd" d="M29.0039 23.1581C28.6644 23.5633 28.3273 23.9604 27.9953 24.3433C31.1989 24.7602 34.5282 23.4845 36.5793 20.7229C38.6304 17.9613 38.8695 14.4324 37.5151 11.526C36.2147 13.5848 34.6857 15.8157 32.9866 18.1033C31.8072 19.6914 30.6306 21.1909 29.4865 22.5775" fill="#00DAFF"/>
</g>
<defs>
<clipPath id="clip0_3759_726">
<rect width="118" height="31" fill="white"/>
</clipPath>
</defs>
</svg>
