<svg xmlns="http://www.w3.org/2000/svg" xmlns:xlink="http://www.w3.org/1999/xlink" version="1.0" x="0" y="0"  viewBox="47.84360809326172 91.44443054199219 238.31278381347656 67.11113128662109" preserveAspectRatio="xMidYMid meet" color-interpolation-filters="sRGB"><g><defs><linearGradient id="92" x1="0%" y1="0%" x2="100%" y2="0%"><stop offset="0%" stop-color="#fa71cd"></stop> <stop offset="100%" stop-color="#9b59b6"></stop></linearGradient><linearGradient id="93" x1="0%" y1="0%" x2="100%" y2="0%"><stop offset="0%" stop-color="#f9d423"></stop> <stop offset="100%" stop-color="#f83600"></stop></linearGradient><linearGradient id="94" x1="0%" y1="0%" x2="100%" y2="0%"><stop offset="0%" stop-color="#0064d2"></stop> <stop offset="100%" stop-color="#1cb0f6"></stop></linearGradient><linearGradient id="95" x1="0%" y1="0%" x2="100%" y2="0%"><stop offset="0%" stop-color="#f00978"></stop> <stop offset="100%" stop-color="#3f51b1"></stop></linearGradient><linearGradient id="96" x1="0%" y1="0%" x2="100%" y2="0%"><stop offset="0%" stop-color="#7873f5"></stop> <stop offset="100%" stop-color="#ec77ab"></stop></linearGradient><linearGradient id="97" x1="0%" y1="0%" x2="100%" y2="0%"><stop offset="0%" stop-color="#f9d423"></stop> <stop offset="100%" stop-color="#e14fad"></stop></linearGradient><linearGradient id="98" x1="0%" y1="0%" x2="100%" y2="0%"><stop offset="0%" stop-color="#009efd"></stop> <stop offset="100%" stop-color="#2af598"></stop></linearGradient><linearGradient id="99" x1="0%" y1="0%" x2="100%" y2="0%"><stop offset="0%" stop-color="#ffcc00"></stop> <stop offset="100%" stop-color="#00b140"></stop></linearGradient><linearGradient id="100" x1="0%" y1="0%" x2="100%" y2="0%"><stop offset="0%" stop-color="#d51007"></stop> <stop offset="100%" stop-color="#ff8177"></stop></linearGradient><linearGradient id="102" x1="0%" y1="0%" x2="100%" y2="0%"><stop offset="0%" stop-color="#a2b6df"></stop> <stop offset="100%" stop-color="#0c3483"></stop></linearGradient><linearGradient id="103" x1="0%" y1="0%" x2="100%" y2="0%"><stop offset="0%" stop-color="#7ac5d8"></stop> <stop offset="100%" stop-color="#eea2a2"></stop></linearGradient><linearGradient id="104" x1="0%" y1="0%" x2="100%" y2="0%"><stop offset="0%" stop-color="#00ecbc"></stop> <stop offset="100%" stop-color="#007adf"></stop></linearGradient><linearGradient id="105" x1="0%" y1="0%" x2="100%" y2="0%"><stop offset="0%" stop-color="#b88746"></stop> <stop offset="100%" stop-color="#fdf5a6"></stop></linearGradient></defs><g fill="#ffffff" class="icon-text-wrapper icon-svg-group iconsvg" transform="translate(56.18000793457031,99.780834200611)"><g class="iconsvg-imagesvg" transform="translate(0,0)" mask="url(#713cf202-6f54-439e-a049-7d5a4d6a48a4)"><g><rect fill="#ffffff" fill-opacity="0" stroke-width="2" x="0" y="0" width="50.39999999999999" height="50.4383331331812" class="image-rect"></rect> <svg x="0" y="0" width="50.39999999999999" height="50.4383331331812" filtersec="colorsb2762221618" class="image-svg-svg primary" style="overflow: visible;"><svg xmlns="http://www.w3.org/2000/svg" viewBox="0.0186874121427536 0.03168483451008797 71.8552474975586 71.91011047363281"><path d="M71.85 12.61c0 2.6.05 5.21 0 7.81-.09 3.42-2.1 4.7-5.32 4.78-5.32.13-7.43-.78-7.59-4.23-.26-5.67-.21-11.36 0-17 .1-2.56 1.76-4 4.53-3.93h3.55c3.35-.15 4.72 1.74 4.82 4.79.07 2.57.01 5.17.01 7.78zM71.86 41.53v4.27c0 5.63-1.08 6.68-6.6 6.67-5.29 0-6.45-1.15-6.47-6.47 0-3.43-.07-6.87 0-10.31.11-3.79 1.49-5.11 5.18-5.19 7.16-.16 7.86.53 7.87 7.83z" fill="#3780ff"></path><path d="M13 60.69c0 1.18-.07 2.37 0 3.55.63 8.1-2.69 7.89-9.93 7.18-2.2-.21-3-2.2-3-4.24C0 62.93 0 58.67.08 54.43c.09-3.1 1.76-4.77 5-4.63h2.84c3.73.09 5 1.36 5.06 5.21.02 1.9.02 3.79.02 5.68z" fill="#38b137"></path><path d="M19.6 44v-2.48c0-5.88 1-6.86 6.81-6.82 5.08 0 6.2 1.15 6.25 6.34v7.82c-.05 3.15-1.55 4.87-4.83 4.79h-3.2c-3.61-.14-4.85-1.37-5-5-.08-1.65-.03-3.15-.03-4.65z" fill="#fcbd05"></path><path d="M52.14 62.47v2.84c0 5.46-.93 6.36-6.42 6.36s-6.35-.89-6.37-6.42c0-2.6-.05-5.21 0-7.81.08-2.83 1.5-4.4 4.44-4.37h3.2c3.88.08 5 1.2 5.11 5.13.07 1.42.04 2.8.04 4.27z" fill="#fa3913"></path><path d="M71.85 64.66c0 6.14-.82 7-6.52 7s-6.55-1-6.54-7c0-5.86 1.05-6.93 6.73-6.92 5.33 0 6.33 1.09 6.33 6.92z" fill="#3780ff"></path><path d="M26.23 58.71c5.35 0 6.42 1.08 6.42 6.47S31.34 72 26 71.94s-6.43-1.27-6.43-6.56c.02-5.52 1.18-6.68 6.66-6.67z" fill="#333333"></path><path d="M52.15 40.81c0 6.16-5.37 9.21-10.68 6.32a4 4 0 0 1-2-3.14c-.13-.93 0-1.89-.1-2.83-.56-8.43 2.93-8 9.85-7.16 3.67.47 2.78 4.29 2.93 6.81zM45.91 15.56c5.37 0 6.27.94 6.25 6.52 0 5.21-1 6.24-6.22 6.24-5.7 0-6.61-.9-6.59-6.56.01-5.34.93-6.2 6.56-6.2z" fill="#fa3913"></path></svg></svg> </g><rect v-gra="id" width="62.400001525878906" height="62.438331604003906" transform="translate(-6, -6)" style="pointer-events:none;" fill="url(#hNSwDTKmexjgEVHPBY9YN)"></rect></g> <g transform="translate(57.400001525878906,5.928043365478516)"><g fill-rule="" class="tp-name iconsvg-namesvg" transform="translate(0,0)"><g transform="scale(1)"><g><path d="M14.65-6.04L14.65-6.04Q14.65-7.59 13.56-8.43 12.47-9.27 9.64-10.12 6.8-10.97 5.12-12.02L5.12-12.02Q1.92-14.03 1.92-17.27L1.92-17.27Q1.92-20.11 4.23-21.95 6.54-23.78 10.23-23.78L10.23-23.78Q12.68-23.78 14.6-22.88 16.52-21.98 17.61-20.31 18.71-18.64 18.71-16.61L18.71-16.61 14.65-16.61Q14.65-18.45 13.49-19.49 12.34-20.53 10.2-20.53L10.2-20.53Q8.2-20.53 7.1-19.67 5.99-18.82 5.99-17.29L5.99-17.29Q5.99-16 7.19-15.14 8.38-14.28 11.12-13.46 13.86-12.65 15.52-11.61 17.18-10.57 17.95-9.22 18.72-7.88 18.72-6.07L18.72-6.07Q18.72-3.14 16.48-1.41 14.23 0.32 10.38 0.32L10.38 0.32Q7.83 0.32 5.7-0.62 3.56-1.56 2.38-3.22 1.19-4.88 1.19-7.09L1.19-7.09 5.27-7.09Q5.27-5.09 6.59-4 7.91-2.9 10.38-2.9L10.38-2.9Q12.5-2.9 13.58-3.76 14.65-4.62 14.65-6.04ZM35.4-23.46L39.46-23.46 39.46-7.78Q39.46-4.04 37.07-1.86 34.68 0.32 30.7 0.32L30.7 0.32Q26.67 0.32 24.3-1.83 21.93-3.98 21.93-7.8L21.93-7.8 21.93-23.46 25.99-23.46 25.99-7.77Q25.99-5.41 27.18-4.17 28.38-2.93 30.7-2.93L30.7-2.93Q35.4-2.93 35.4-7.9L35.4-7.9 35.4-23.46ZM48.11-23.46L48.11 0 44.05 0 44.05-23.46 48.11-23.46ZM69.9 0L61.34 0 61.34-23.46 69.38-23.46Q73.36-23.46 75.44-21.87 77.52-20.27 77.52-17.11L77.52-17.11Q77.52-15.5 76.65-14.21 75.78-12.92 74.1-12.21L74.1-12.21Q76.01-11.7 77.05-10.27 78.08-8.85 78.08-6.85L78.08-6.85Q78.08-3.54 75.97-1.77 73.85 0 69.9 0L69.9 0ZM70.29-10.59L65.42-10.59 65.42-3.25 69.95-3.25Q71.87-3.25 72.94-4.21 74.02-5.16 74.02-6.85L74.02-6.85Q74.02-10.51 70.29-10.59L70.29-10.59ZM65.42-20.17L65.42-13.58 69.42-13.58Q71.32-13.58 72.39-14.45 73.46-15.31 73.46-16.89L73.46-16.89Q73.46-18.63 72.47-19.4 71.48-20.17 69.38-20.17L69.38-20.17 65.42-20.17ZM95.49 0L90.78-9.04 86.24-9.04 86.24 0 82.16 0 82.16-23.46 90.41-23.46Q94.47-23.46 96.68-21.64 98.89-19.82 98.89-16.37L98.89-16.37Q98.89-14.02 97.75-12.43 96.62-10.84 94.58-9.99L94.58-9.99 99.85-0.21 99.85 0 95.49 0ZM86.24-20.17L86.24-12.31 90.43-12.31Q92.49-12.31 93.65-13.35 94.81-14.39 94.81-16.19L94.81-16.19Q94.81-18.08 93.74-19.11 92.67-20.14 90.54-20.17L90.54-20.17 86.24-20.17ZM107.06-23.46L107.06 0 103 0 103-23.46 107.06-23.46ZM118.82 0L112.07 0 112.07-23.46 119-23.46Q122.11-23.46 124.52-22.08 126.92-20.69 128.25-18.14 129.57-15.6 129.57-12.31L129.57-12.31 129.57-11.13Q129.57-7.8 128.24-5.27 126.91-2.74 124.45-1.37 121.99 0 118.82 0L118.82 0ZM119-20.17L116.14-20.17 116.14-3.25 118.8-3.25Q122.01-3.25 123.73-5.26 125.44-7.27 125.47-11.02L125.47-11.02 125.47-12.33Q125.47-16.15 123.81-18.16 122.15-20.17 119-20.17L119-20.17ZM151.61-12.04L151.61-3.05Q150.34-1.39 148.08-0.53 145.83 0.32 142.96 0.32L142.96 0.32Q140.01 0.32 137.74-1.02 135.46-2.35 134.23-4.84 133-7.33 132.95-10.65L132.95-10.65 132.95-12.49Q132.95-17.81 135.5-20.79 138.04-23.78 142.6-23.78L142.6-23.78Q146.52-23.78 148.82-21.85 151.13-19.92 151.59-16.27L151.59-16.27 147.6-16.27Q146.92-20.51 142.68-20.51L142.68-20.51Q139.94-20.51 138.52-18.54 137.09-16.56 137.04-12.75L137.04-12.75 137.04-10.94Q137.04-7.14 138.65-5.04 140.25-2.93 143.1-2.93L143.1-2.93Q146.23-2.93 147.55-4.35L147.55-4.35 147.55-8.94 142.72-8.94 142.72-12.04 151.61-12.04ZM169.8-13.7L169.8-10.47 160.17-10.47 160.17-3.25 171.43-3.25 171.43 0 156.09 0 156.09-23.46 171.32-23.46 171.32-20.17 160.17-20.17 160.17-13.7 169.8-13.7Z" transform="translate(-1.190000057220459, 23.780000686645508)"></path></g> </g></g> <g fill-rule="" class="tp-slogan iconsvg-slogansvg" fill="url(#44cb1b0f-be0a-4cfd-b7d1-de57a29f14fd)" transform="translate(1.46319580078125,31.10000228881836)"> <g mask="url(#80c54061-1aa0-433d-b343-6f201211cb89)"><g><rect stroke-width="2" class="i-icon-bg" x="0" y="0" width="167.3135986328125" height="12.486401557922363" fill-opacity="1"></rect> </g> <g transform="translate(6,2)"><g transform="scale(1, 1)" fill="#040e29"><g transform="scale(1.04)"><path d="M2.06-3.20L4.43-3.20L4.06-4.40Q3.84-5.06 3.65-5.72Q3.46-6.37 3.26-7.06L3.26-7.06L3.22-7.06Q3.04-6.37 2.84-5.72Q2.65-5.06 2.44-4.40L2.44-4.40L2.06-3.20ZM5.42 0L4.68-2.40L1.81-2.40L1.06 0L0.04 0L2.70-7.87L3.83-7.87L6.49 0L5.42 0ZM19.61 0L19.61-7.87L20.64-7.87L23.48-2.93L24.34-1.30L24.38-1.30Q24.35-1.90 24.31-2.54Q24.26-3.18 24.26-3.80L24.26-3.80L24.26-7.87L25.21-7.87L25.21 0L24.18 0L21.32-4.96L20.47-6.58L20.42-6.58Q20.47-5.98 20.51-5.36Q20.56-4.74 20.56-4.12L20.56-4.12L20.56 0L19.61 0ZM40.36-3.20L42.72-3.20L42.35-4.40Q42.13-5.06 41.94-5.72Q41.75-6.37 41.56-7.06L41.56-7.06L41.51-7.06Q41.33-6.37 41.14-5.72Q40.94-5.06 40.73-4.40L40.73-4.40L40.36-3.20ZM43.72 0L42.97-2.40L40.10-2.40L39.35 0L38.33 0L40.99-7.87L42.12-7.87L44.78 0L43.72 0ZM57.90 0L57.90-7.87L58.90-7.87L58.90-0.85L62.34-0.85L62.34 0L57.90 0ZM76.09 0L76.09-3.05L73.73-7.87L74.80-7.87L75.82-5.65Q76.01-5.22 76.19-4.80Q76.37-4.38 76.57-3.94L76.57-3.94L76.62-3.94Q76.82-4.38 77.03-4.80Q77.23-5.22 77.41-5.65L77.41-5.65L78.42-7.87L79.46-7.87L77.10-3.05L77.10 0L76.09 0ZM94.00 0L94.00-7.03L91.62-7.03L91.62-7.87L97.38-7.87L97.38-7.03L95.00-7.03L95.00 0L94.00 0ZM110.80 0L110.80-7.87L111.79-7.87L111.79 0L110.80 0ZM125.50-3.94L125.50-3.94Q125.50-4.88 125.76-5.64Q126.02-6.40 126.49-6.92Q126.96-7.45 127.60-7.73Q128.24-8.02 129-8.02L129-8.02Q129.72-8.02 130.26-7.72Q130.80-7.43 131.15-7.04L131.15-7.04L130.58-6.41Q130.27-6.74 129.89-6.94Q129.52-7.14 129.01-7.14L129.01-7.14Q128.45-7.14 127.99-6.92Q127.54-6.70 127.21-6.28Q126.89-5.87 126.71-5.28Q126.53-4.69 126.53-3.96L126.53-3.96Q126.53-3.22 126.70-2.62Q126.88-2.03 127.19-1.61Q127.50-1.19 127.95-0.96Q128.40-0.73 128.96-0.73L128.96-0.73Q129.54-0.73 129.97-0.96Q130.39-1.19 130.78-1.61L130.78-1.61L131.34-1.00Q130.87-0.46 130.28-0.16Q129.70 0.14 128.94 0.14L128.94 0.14Q128.20 0.14 127.57-0.13Q126.94-0.41 126.47-0.93Q126.01-1.45 125.75-2.21Q125.50-2.98 125.50-3.94ZM143.94-1.02L144.54-1.72Q144.96-1.27 145.53-1.00Q146.10-0.73 146.71-0.73L146.71-0.73Q147.49-0.73 147.92-1.09Q148.36-1.44 148.36-2.02L148.36-2.02Q148.36-2.32 148.25-2.53Q148.15-2.74 147.98-2.89Q147.80-3.04 147.56-3.16Q147.32-3.28 147.05-3.41L147.05-3.41L145.92-3.90Q145.64-4.02 145.36-4.19Q145.07-4.36 144.84-4.60Q144.61-4.84 144.47-5.17Q144.32-5.50 144.32-5.93L144.32-5.93Q144.32-6.37 144.51-6.76Q144.70-7.14 145.03-7.42Q145.36-7.70 145.81-7.86Q146.26-8.02 146.80-8.02L146.80-8.02Q147.50-8.02 148.10-7.75Q148.70-7.48 149.12-7.04L149.12-7.04L148.58-6.40Q148.22-6.74 147.79-6.94Q147.35-7.14 146.80-7.14L146.80-7.14Q146.14-7.14 145.73-6.83Q145.33-6.53 145.33-5.99L145.33-5.99Q145.33-5.70 145.45-5.50Q145.56-5.30 145.75-5.15Q145.94-5.00 146.17-4.89Q146.40-4.78 146.64-4.68L146.64-4.68L147.76-4.20Q148.09-4.06 148.39-3.87Q148.69-3.68 148.91-3.44Q149.12-3.19 149.25-2.86Q149.38-2.53 149.38-2.10L149.38-2.10Q149.38-1.63 149.19-1.22Q149.00-0.82 148.66-0.51Q148.31-0.20 147.82-0.03Q147.32 0.14 146.70 0.14L146.70 0.14Q145.87 0.14 145.16-0.17Q144.46-0.48 143.94-1.02L143.94-1.02Z" transform="translate(-0.036000000000000004, 8.016)"></path></g></g></g></g></g></g></g><mask id="80c54061-1aa0-433d-b343-6f201211cb89"><g fill="white"><rect stroke-width="2" class="i-icon-bg" x="0" y="0" width="167.3135986328125" height="12.486401557922363" fill-opacity="1"></rect> </g> <g transform="translate(6,2)" fill="black"><g transform="scale(1, 1)"><g transform="scale(1.04)"><path d="M2.06-3.20L4.43-3.20L4.06-4.40Q3.84-5.06 3.65-5.72Q3.46-6.37 3.26-7.06L3.26-7.06L3.22-7.06Q3.04-6.37 2.84-5.72Q2.65-5.06 2.44-4.40L2.44-4.40L2.06-3.20ZM5.42 0L4.68-2.40L1.81-2.40L1.06 0L0.04 0L2.70-7.87L3.83-7.87L6.49 0L5.42 0ZM19.61 0L19.61-7.87L20.64-7.87L23.48-2.93L24.34-1.30L24.38-1.30Q24.35-1.90 24.31-2.54Q24.26-3.18 24.26-3.80L24.26-3.80L24.26-7.87L25.21-7.87L25.21 0L24.18 0L21.32-4.96L20.47-6.58L20.42-6.58Q20.47-5.98 20.51-5.36Q20.56-4.74 20.56-4.12L20.56-4.12L20.56 0L19.61 0ZM40.36-3.20L42.72-3.20L42.35-4.40Q42.13-5.06 41.94-5.72Q41.75-6.37 41.56-7.06L41.56-7.06L41.51-7.06Q41.33-6.37 41.14-5.72Q40.94-5.06 40.73-4.40L40.73-4.40L40.36-3.20ZM43.72 0L42.97-2.40L40.10-2.40L39.35 0L38.33 0L40.99-7.87L42.12-7.87L44.78 0L43.72 0ZM57.90 0L57.90-7.87L58.90-7.87L58.90-0.85L62.34-0.85L62.34 0L57.90 0ZM76.09 0L76.09-3.05L73.73-7.87L74.80-7.87L75.82-5.65Q76.01-5.22 76.19-4.80Q76.37-4.38 76.57-3.94L76.57-3.94L76.62-3.94Q76.82-4.38 77.03-4.80Q77.23-5.22 77.41-5.65L77.41-5.65L78.42-7.87L79.46-7.87L77.10-3.05L77.10 0L76.09 0ZM94.00 0L94.00-7.03L91.62-7.03L91.62-7.87L97.38-7.87L97.38-7.03L95.00-7.03L95.00 0L94.00 0ZM110.80 0L110.80-7.87L111.79-7.87L111.79 0L110.80 0ZM125.50-3.94L125.50-3.94Q125.50-4.88 125.76-5.64Q126.02-6.40 126.49-6.92Q126.96-7.45 127.60-7.73Q128.24-8.02 129-8.02L129-8.02Q129.72-8.02 130.26-7.72Q130.80-7.43 131.15-7.04L131.15-7.04L130.58-6.41Q130.27-6.74 129.89-6.94Q129.52-7.14 129.01-7.14L129.01-7.14Q128.45-7.14 127.99-6.92Q127.54-6.70 127.21-6.28Q126.89-5.87 126.71-5.28Q126.53-4.69 126.53-3.96L126.53-3.96Q126.53-3.22 126.70-2.62Q126.88-2.03 127.19-1.61Q127.50-1.19 127.95-0.96Q128.40-0.73 128.96-0.73L128.96-0.73Q129.54-0.73 129.97-0.96Q130.39-1.19 130.78-1.61L130.78-1.61L131.34-1.00Q130.87-0.46 130.28-0.16Q129.70 0.14 128.94 0.14L128.94 0.14Q128.20 0.14 127.57-0.13Q126.94-0.41 126.47-0.93Q126.01-1.45 125.75-2.21Q125.50-2.98 125.50-3.94ZM143.94-1.02L144.54-1.72Q144.96-1.27 145.53-1.00Q146.10-0.73 146.71-0.73L146.71-0.73Q147.49-0.73 147.92-1.09Q148.36-1.44 148.36-2.02L148.36-2.02Q148.36-2.32 148.25-2.53Q148.15-2.74 147.98-2.89Q147.80-3.04 147.56-3.16Q147.32-3.28 147.05-3.41L147.05-3.41L145.92-3.90Q145.64-4.02 145.36-4.19Q145.07-4.36 144.84-4.60Q144.61-4.84 144.47-5.17Q144.32-5.50 144.32-5.93L144.32-5.93Q144.32-6.37 144.51-6.76Q144.70-7.14 145.03-7.42Q145.36-7.70 145.81-7.86Q146.26-8.02 146.80-8.02L146.80-8.02Q147.50-8.02 148.10-7.75Q148.70-7.48 149.12-7.04L149.12-7.04L148.58-6.40Q148.22-6.74 147.79-6.94Q147.35-7.14 146.80-7.14L146.80-7.14Q146.14-7.14 145.73-6.83Q145.33-6.53 145.33-5.99L145.33-5.99Q145.33-5.70 145.45-5.50Q145.56-5.30 145.75-5.15Q145.94-5.00 146.17-4.89Q146.40-4.78 146.64-4.68L146.64-4.68L147.76-4.20Q148.09-4.06 148.39-3.87Q148.69-3.68 148.91-3.44Q149.12-3.19 149.25-2.86Q149.38-2.53 149.38-2.10L149.38-2.10Q149.38-1.63 149.19-1.22Q149.00-0.82 148.66-0.51Q148.31-0.20 147.82-0.03Q147.32 0.14 146.70 0.14L146.70 0.14Q145.87 0.14 145.16-0.17Q144.46-0.48 143.94-1.02L143.94-1.02Z" transform="translate(-0.036000000000000004, 8.016)"></path></g></g></g></mask><defs v-gra="od"><linearGradient x1="0" y1="1" x2="0" y2="0" id="44cb1b0f-be0a-4cfd-b7d1-de57a29f14fd"><stop offset="0%" stop-color="#4481eb"></stop><stop offset="100%" stop-color="#05befe"></stop></linearGradient><filter id="42443b3f1de60f6b6fd3b6a9844b4764" filterUnits="objectBoundingBox"><feColorMatrix type="matrix" values="0 0 0 0 0.99609375  0 0 0 0 0.99609375  0 0 0 0 0.99609375  0 0 0 1 0"></feColorMatrix></filter></defs><defs v-gra="id"><filter id="9a91daa6-00cc-41c1-ac73-8f56c6d9bae1" filterUnits="userSpaceOnUse"><feColorMatrix type="matrix" values="0 0 0 0 0.99609375  0 0 0 0 0.99609375  0 0 0 0 0.99609375  0 0 0 1 0"></feColorMatrix></filter><linearGradient x1="0" y1="1" x2="0" y2="0" id="hNSwDTKmexjgEVHPBY9YN"><stop offset="0%" stop-color="#4481eb"></stop><stop offset="100%" stop-color="#05befe"></stop></linearGradient><filter id="42443b3f1de60f6b6fd3b6a9844b4764" filterUnits="objectBoundingBox"><feColorMatrix type="matrix" values="0 0 0 0 0.99609375  0 0 0 0 0.99609375  0 0 0 0 0.99609375  0 0 0 1 0"></feColorMatrix></filter></defs><mask v-gra="im" id="713cf202-6f54-439e-a049-7d5a4d6a48a4"><g class="iconsvg-imagesvg" filter="url(#9a91daa6-00cc-41c1-ac73-8f56c6d9bae1)"><g><rect fill="#ffffff" fill-opacity="0" stroke-width="2" x="0" y="0" width="50.39999999999999" height="50.4383331331812" class="image-rect"></rect> <svg x="0" y="0" width="50.39999999999999" height="50.4383331331812" filtersec="colorsb2762221618" class="image-svg-svg primary" style="overflow: visible;"><svg xmlns="http://www.w3.org/2000/svg" viewBox="0.0186874121427536 0.03168483451008797 71.8552474975586 71.91011047363281"><path d="M71.85 12.61c0 2.6.05 5.21 0 7.81-.09 3.42-2.1 4.7-5.32 4.78-5.32.13-7.43-.78-7.59-4.23-.26-5.67-.21-11.36 0-17 .1-2.56 1.76-4 4.53-3.93h3.55c3.35-.15 4.72 1.74 4.82 4.79.07 2.57.01 5.17.01 7.78zM71.86 41.53v4.27c0 5.63-1.08 6.68-6.6 6.67-5.29 0-6.45-1.15-6.47-6.47 0-3.43-.07-6.87 0-10.31.11-3.79 1.49-5.11 5.18-5.19 7.16-.16 7.86.53 7.87 7.83z" fill="#3780ff"></path><path d="M13 60.69c0 1.18-.07 2.37 0 3.55.63 8.1-2.69 7.89-9.93 7.18-2.2-.21-3-2.2-3-4.24C0 62.93 0 58.67.08 54.43c.09-3.1 1.76-4.77 5-4.63h2.84c3.73.09 5 1.36 5.06 5.21.02 1.9.02 3.79.02 5.68z" fill="#38b137"></path><path d="M19.6 44v-2.48c0-5.88 1-6.86 6.81-6.82 5.08 0 6.2 1.15 6.25 6.34v7.82c-.05 3.15-1.55 4.87-4.83 4.79h-3.2c-3.61-.14-4.85-1.37-5-5-.08-1.65-.03-3.15-.03-4.65z" fill="#fcbd05"></path><path d="M52.14 62.47v2.84c0 5.46-.93 6.36-6.42 6.36s-6.35-.89-6.37-6.42c0-2.6-.05-5.21 0-7.81.08-2.83 1.5-4.4 4.44-4.37h3.2c3.88.08 5 1.2 5.11 5.13.07 1.42.04 2.8.04 4.27z" fill="#fa3913"></path><path d="M71.85 64.66c0 6.14-.82 7-6.52 7s-6.55-1-6.54-7c0-5.86 1.05-6.93 6.73-6.92 5.33 0 6.33 1.09 6.33 6.92z" fill="#3780ff"></path><path d="M26.23 58.71c5.35 0 6.42 1.08 6.42 6.47S31.34 72 26 71.94s-6.43-1.27-6.43-6.56c.02-5.52 1.18-6.68 6.66-6.67z" fill="#333333"></path><path d="M52.15 40.81c0 6.16-5.37 9.21-10.68 6.32a4 4 0 0 1-2-3.14c-.13-.93 0-1.89-.1-2.83-.56-8.43 2.93-8 9.85-7.16 3.67.47 2.78 4.29 2.93 6.81zM45.91 15.56c5.37 0 6.27.94 6.25 6.52 0 5.21-1 6.24-6.22 6.24-5.7 0-6.61-.9-6.59-6.56.01-5.34.93-6.2 6.56-6.2z" fill="#fa3913"></path></svg></svg> </g></g></mask></g></svg>
