<svg viewBox="0 0 2400 567" fill="none" xmlns="http://www.w3.org/2000/svg">
<g clip-path="url(#clip0_4330_244)">
<g clip-path="url(#clip1_4330_244)">
<path d="M542.827 114.782C542.827 133.547 543.188 152.384 542.827 171.15C542.177 195.833 527.659 205.071 504.402 205.648C465.976 206.587 450.736 200.019 449.58 175.119C447.702 134.197 448.063 93.13 449.58 52.4242C450.302 33.9478 462.292 23.5548 482.3 24.06H507.941C532.137 22.9774 542.033 36.6182 542.755 58.6311C543.26 77.1797 542.827 95.9448 542.827 114.782ZM542.899 323.508V354.326C542.899 394.959 535.099 402.538 495.229 402.465C457.02 402.465 448.641 394.165 448.497 355.769C448.497 331.014 447.991 306.186 448.497 281.358C449.291 254.005 459.259 244.478 485.911 243.9C537.627 242.746 542.683 247.726 542.755 300.412L542.899 323.508Z" fill="#3780FF"/>
<path d="M117.762 461.792C117.762 470.308 117.257 478.897 117.762 487.413C122.313 545.874 98.3327 544.358 46.0392 539.234C30.1489 537.718 24.3706 523.356 24.3706 508.632C23.865 477.959 23.865 447.213 24.4429 416.611C25.0929 394.238 37.1551 382.185 60.5571 383.195H81.07C108.011 383.845 117.184 393.011 117.618 420.797C117.762 434.51 117.762 448.151 117.762 461.792Z" fill="#38B137"/>
<path d="M165.433 341.335V323.436C165.433 280.998 172.656 273.925 214.621 274.213C251.313 274.213 259.402 282.513 259.763 319.971V376.411C259.402 399.146 248.568 411.559 224.877 410.982H201.764C175.689 409.972 166.733 401.094 165.65 374.895C165.072 362.987 165.433 352.161 165.433 341.335Z" fill="#FCBD05"/>
<path d="M400.465 474.639V495.136C400.465 534.543 393.747 541.038 354.094 541.038C314.44 541.038 308.229 534.615 308.084 494.703C308.084 475.938 307.723 457.101 308.084 438.336C308.662 417.91 318.919 406.579 340.154 406.796H363.267C391.292 407.373 399.381 415.457 400.176 443.821C400.681 454.069 400.465 464.029 400.465 474.639Z" fill="#FA3913"/>
<path d="M542.827 490.445C542.827 534.759 536.904 540.966 495.734 540.966C454.564 540.966 448.424 533.749 448.497 490.445C448.497 448.151 456.081 440.429 497.106 440.501C535.604 440.501 542.827 448.368 542.827 490.445Z" fill="#3780FF"/>
<path d="M213.321 447.501C251.963 447.501 259.691 455.296 259.691 494.198C259.691 533.099 250.229 543.42 211.659 542.987C173.089 542.554 165.216 533.821 165.216 495.641C165.361 455.801 173.739 447.429 213.321 447.501Z" fill="white"/>
<path d="M400.537 318.311C400.537 362.77 361.75 384.783 323.397 363.925C319.331 361.601 315.891 358.323 313.375 354.375C310.858 350.427 309.34 345.927 308.951 341.262C308.012 334.55 308.951 327.622 308.229 320.837C304.184 259.995 329.392 263.099 379.374 269.161C405.882 272.553 399.453 300.123 400.537 318.311ZM355.466 136.073C394.253 136.073 400.754 142.858 400.609 183.13C400.609 220.733 393.386 228.167 355.683 228.167C314.513 228.167 307.94 221.671 308.084 180.821C308.157 142.28 314.802 136.073 355.466 136.073Z" fill="#FA3913"/>
</g>
</g>
<path d="M799.455 106.43C799.455 55.9345 763.725 29.2104 706.143 29.2104C654.319 29.2104 619.474 54.901 619.474 89.7456C619.474 171.837 756.047 142.16 756.047 195.313C756.047 213.621 737.001 225.581 709.981 225.581C678.68 225.581 660.372 209.487 660.372 183.354H616.226C616.226 236.802 653.876 261.016 710.867 261.016C763.134 261.016 799.455 234.882 799.455 195.313C799.455 113.517 661.701 138.321 661.701 90.3362C661.701 70.9945 685.177 64.3504 706.438 64.3504C735.672 64.3504 756.047 80.7392 756.047 106.43H799.455ZM974.564 169.918C974.564 202.105 953.303 218.494 922.445 218.494C890.553 218.494 872.541 202.105 872.541 169.918V32.4587H828.394V176.267C828.394 233.997 872.245 261.016 922.74 261.016C974.86 261.016 1017.38 233.997 1017.38 176.267V32.4587H974.564V169.918ZM1058.58 257.768H1101.98V32.4587H1058.58V257.768Z" fill="white"/>
<path d="M752.061 308.558H696.988L616.226 533.867H663.177L677.351 492.083H775.241L790.449 533.867H840.649L752.061 308.558ZM688.72 458.272L723.122 355.215H726.37L763.282 458.272H688.72ZM864.125 533.867H906.204V380.61H907.828L1016.35 533.867H1058.87V308.558H1017.38V463.735H1015.76L906.942 308.558H864.125V533.867ZM1218.18 308.558H1163.11L1082.35 533.867H1129.3L1143.47 492.083H1241.36L1256.57 533.867H1306.77L1218.18 308.558ZM1154.84 458.272L1189.24 355.215H1192.49L1229.4 458.272H1154.84ZM1330.25 533.867H1494.13V491.345H1373.95V308.558H1330.25V533.867ZM1588.78 443.803L1667.62 308.558H1618.3L1568.7 398.623L1518.2 308.558H1468.3L1545.22 443.803V533.867H1588.78V443.803ZM1671.46 308.558V345.618H1739.37V533.867H1782.78V345.618H1850.41V308.558H1671.46ZM1874.62 533.867H1918.03V308.558H1874.62V533.867ZM2067.74 537.115C2131.82 537.115 2166.52 499.466 2173.9 452.809H2129.9C2122.37 480.714 2099.63 499.17 2066.41 499.17C2022.27 499.17 1994.36 460.192 1994.36 417.965C1994.36 373.523 2025.51 343.551 2065.82 343.551C2104.06 343.551 2123.99 365.255 2130.49 391.979H2173.9C2167.55 336.611 2123.99 305.31 2062.87 305.31C1994.36 305.31 1951.84 357.134 1951.84 421.213C1951.84 484.996 1990.82 537.115 2067.74 537.115ZM2376.47 382.529C2376.47 332.034 2340.74 305.31 2283.01 305.31C2231.19 305.31 2196.49 331.001 2196.49 365.845C2196.49 447.937 2332.91 418.26 2332.91 471.413C2332.91 489.721 2314.02 501.68 2286.85 501.68C2255.7 501.68 2237.39 485.587 2237.39 459.453H2193.24C2193.24 512.901 2230.89 537.115 2287.88 537.115C2340 537.115 2376.47 510.982 2376.47 471.413C2376.47 389.616 2238.57 414.421 2238.57 366.436C2238.57 347.094 2262.19 340.45 2283.45 340.45C2312.69 340.45 2332.91 356.839 2332.91 382.529H2376.47Z" fill="white"/>
<defs>
<clipPath id="clip0_4330_244">
<rect width="518.873" height="519.268" fill="white" transform="translate(23.5294 23.5293)"/>
</clipPath>
<clipPath id="clip1_4330_244">
<rect width="519" height="519" fill="white" transform="translate(24 24)"/>
</clipPath>
</defs>
</svg>
