<svg viewBox="0 0 567 567" fill="none" xmlns="http://www.w3.org/2000/svg">
<g clip-path="url(#clip0_4330_244)">
<g clip-path="url(#clip1_4330_244)">
<path d="M542.827 114.782C542.827 133.547 543.188 152.384 542.827 171.15C542.177 195.833 527.659 205.071 504.402 205.648C465.976 206.587 450.736 200.019 449.58 175.119C447.702 134.197 448.063 93.13 449.58 52.4242C450.302 33.9478 462.292 23.5548 482.3 24.06H507.941C532.137 22.9774 542.033 36.6182 542.755 58.6311C543.26 77.1797 542.827 95.9448 542.827 114.782ZM542.899 323.508V354.326C542.899 394.959 535.099 402.538 495.229 402.465C457.02 402.465 448.641 394.165 448.497 355.769C448.497 331.014 447.991 306.186 448.497 281.358C449.291 254.005 459.259 244.478 485.911 243.9C537.627 242.746 542.683 247.726 542.755 300.412L542.899 323.508Z" fill="#3780FF"/>
<path d="M117.762 461.792C117.762 470.308 117.257 478.897 117.762 487.413C122.313 545.874 98.3327 544.358 46.0392 539.234C30.1489 537.718 24.3706 523.356 24.3706 508.632C23.865 477.959 23.865 447.213 24.4429 416.611C25.0929 394.238 37.1551 382.185 60.5571 383.195H81.07C108.011 383.845 117.184 393.011 117.618 420.797C117.762 434.51 117.762 448.151 117.762 461.792Z" fill="#38B137"/>
<path d="M165.433 341.335V323.436C165.433 280.998 172.656 273.925 214.621 274.213C251.313 274.213 259.402 282.513 259.763 319.971V376.411C259.402 399.146 248.568 411.559 224.877 410.982H201.764C175.689 409.972 166.733 401.094 165.65 374.895C165.072 362.987 165.433 352.161 165.433 341.335Z" fill="#FCBD05"/>
<path d="M400.465 474.639V495.136C400.465 534.543 393.747 541.038 354.094 541.038C314.44 541.038 308.229 534.615 308.084 494.703C308.084 475.938 307.723 457.101 308.084 438.336C308.662 417.91 318.919 406.579 340.154 406.796H363.267C391.292 407.373 399.381 415.457 400.176 443.821C400.681 454.069 400.465 464.029 400.465 474.639Z" fill="#FA3913"/>
<path d="M542.827 490.445C542.827 534.759 536.904 540.966 495.734 540.966C454.564 540.966 448.424 533.749 448.497 490.445C448.497 448.151 456.081 440.429 497.106 440.501C535.604 440.501 542.827 448.368 542.827 490.445Z" fill="#3780FF"/>
<path d="M213.321 447.501C251.963 447.501 259.691 455.296 259.691 494.198C259.691 533.099 250.229 543.42 211.659 542.987C173.089 542.554 165.216 533.821 165.216 495.641C165.361 455.801 173.739 447.429 213.321 447.501Z" fill="white"/>
<path d="M400.537 318.311C400.537 362.77 361.75 384.783 323.397 363.925C319.331 361.601 315.891 358.323 313.375 354.375C310.858 350.427 309.34 345.927 308.951 341.262C308.012 334.55 308.951 327.622 308.229 320.837C304.184 259.995 329.392 263.099 379.374 269.161C405.882 272.553 399.453 300.123 400.537 318.311ZM355.466 136.073C394.253 136.073 400.754 142.858 400.609 183.13C400.609 220.733 393.386 228.167 355.683 228.167C314.513 228.167 307.94 221.671 308.084 180.821C308.157 142.28 314.802 136.073 355.466 136.073Z" fill="#FA3913"/>
</g>
</g>
<defs>
<clipPath id="clip0_4330_244">
<rect width="518.873" height="519.268" fill="white" transform="translate(23.5294 23.5293)"/>
</clipPath>
<clipPath id="clip1_4330_244">
<rect width="519" height="519" fill="white" transform="translate(24 24)"/>
</clipPath>
</defs>
</svg>
